<svg width="100" height="145" viewBox="0 0 100 145" fill="none" xmlns="http://www.w3.org/2000/svg">
<g clip-path="url(#clip0_14_481)">
<path d="M87.1756 64.7451V61.377C87.1756 58.3083 84.7568 55.8007 81.7263 55.6431V28.1786H85.0784C86.2364 28.1786 87.1756 27.2397 87.1756 26.0814V17.0618C87.1756 16.0771 86.4905 15.225 85.5289 15.0135L49.9506 7.18796C49.6534 7.1226 49.3462 7.1226 49.0494 7.18796L13.4711 15.0138C12.5095 15.2253 11.8244 16.0775 11.8244 17.0621V26.0814C11.8244 27.2397 12.7636 28.1786 13.9216 28.1786H17.2737V55.6434C14.2432 55.8007 11.8244 58.3083 11.8244 61.3773V64.7455C9.08571 65.2387 7 67.6341 7 70.5126V75.7637C7 76.9221 7.93922 77.861 9.09725 77.861H13.9216H85.0784H89.9027C91.0608 77.861 92 76.9221 92 75.7637V70.5126C92 67.6341 89.9139 65.2387 87.1756 64.7451ZM16.0189 61.377C16.0189 60.5199 16.7162 59.8226 17.5733 59.8226H81.4267C82.2838 59.8226 82.9811 60.5199 82.9811 61.377V64.6469H16.0189V61.377ZM27.4384 55.6281H21.4682V28.79H27.4384V55.6281ZM50.6692 28.1786V55.6281H48.3311V28.1786H50.6692ZM60.8342 55.6281H54.8637V28.79H60.8342V55.6281ZM77.5318 55.6281H71.5616V28.79H77.5318V55.6281ZM44.1363 28.79V55.6281H38.1658V28.79H44.1363ZM11.1945 70.5126C11.1945 69.5912 11.9443 68.8418 12.8653 68.8418H13.9213H16.0185H82.9808H85.078H86.134C87.0554 68.8418 87.8048 69.5915 87.8048 70.5126V73.6665H82.9804H16.0189H11.1945V70.5126ZM67.3671 55.6281H65.0287V28.1786H67.3671V55.6281ZM16.0189 18.748L49.5 11.3835L82.9811 18.748V23.9838H16.0189V18.748ZM33.9713 28.1786V55.6281H31.6329V28.1786H33.9713Z" fill="#FFBA08"/>
</g>
<defs>
<clipPath id="clip0_14_481">
<rect width="85" height="85" fill="white" transform="translate(7)"/>
</clipPath>
</defs>
</svg>
