<svg width="113" height="145" viewBox="0 0 113 145" fill="none" xmlns="http://www.w3.org/2000/svg">
<path d="M46.9638 34.418C46.1761 34.418 45.5376 35.0566 45.5376 35.8442V79.0106C45.5376 79.7982 46.1761 80.4368 46.9638 80.4368C47.7514 80.4368 48.3899 79.7982 48.3899 79.0106V35.8442C48.3899 35.0564 47.7514 34.418 46.9638 34.418Z" fill="#FFBA08"/>
<path d="M53.4262 34.418C52.6385 34.418 52 35.0566 52 35.8442V79.0106C52 79.7982 52.6385 80.4368 53.4262 80.4368C54.2138 80.4368 54.8524 79.7982 54.8524 79.0106V35.8442C54.8524 35.0564 54.2138 34.418 53.4262 34.418Z" fill="#FFBA08"/>
<path d="M59.4262 34.418C58.6385 34.418 58 35.0566 58 35.8442V79.0106C58 79.7982 58.6385 80.4368 59.4262 80.4368C60.2138 80.4368 60.8524 79.7982 60.8524 79.0106V35.8442C60.8524 35.0564 60.2138 34.418 59.4262 34.418Z" fill="#FFBA08"/>
<path d="M66.0364 34.418C65.2487 34.418 64.6102 35.0566 64.6102 35.8442V79.0106C64.6102 79.7982 65.2487 80.4368 66.0364 80.4368C66.824 80.4368 67.4626 79.7982 67.4626 79.0106V35.8442C67.4626 35.0564 66.8238 34.418 66.0364 34.418Z" fill="#FFBA08"/>
<path d="M83.0258 82.1476H74.2799V31.4706C74.2799 30.6829 73.6413 30.0444 72.8537 30.0444H71.2278V17.0186C71.2278 16.2309 70.5893 15.5924 69.8017 15.5924H67.3543V5.60909C67.3543 4.82145 66.7158 4.1829 65.9281 4.1829H57.9263C57.9263 4.1829 57.2877 4.1829 56.5001 4.1829C55.0739 4.1829 55.0739 6.93962 55.0739 4.1829H47.0721C46.2844 4.1829 45.6459 4.82145 45.6459 5.60909V15.5924H43.1986C42.4109 15.5924 41.7724 16.2309 41.7724 17.0186V30.0444H40.1465C39.3589 30.0444 38.7203 30.6829 38.7203 31.4706V82.1476H29.9744C29.1868 82.1476 28.5482 82.7862 28.5482 83.5738C28.5482 84.3614 29.1868 85 29.9744 85H83.0258C83.8134 85 84.452 84.3614 84.452 83.5738C84.452 82.7862 83.8132 82.1476 83.0258 82.1476ZM48.4983 7.03527H64.502V15.5924H63.1663V10.394C63.1663 9.6064 62.5277 8.96785 61.7401 8.96785C60.9525 8.96785 60.3139 9.6064 60.3139 10.394V15.5924H57.9263V10.394C57.9263 9.6064 57.2877 8.96785 56.5001 8.96785C55.7125 8.96785 55.0739 9.6064 55.0739 10.394V15.5924H52.6865V10.394C52.6865 9.6064 52.0479 8.96785 51.2603 8.96785C50.4727 8.96785 49.8341 9.6064 49.8341 10.394V15.5924H48.4985L48.4983 7.03527ZM44.6247 18.4447H68.3755V30.0444H65.7861V20.6949C65.7861 19.9072 65.1475 19.2687 64.3599 19.2687C63.5723 19.2687 62.9337 19.9072 62.9337 20.6949V30.0444H60.5461V20.6949C60.5461 19.9072 59.9075 19.2687 59.1199 19.2687C58.3323 19.2687 57.6937 19.9072 57.6937 20.6949V30.0444H55.3063V20.6949C55.3063 19.9072 54.6677 19.2687 53.8801 19.2687C53.0925 19.2687 52.4539 19.9072 52.4539 20.6949V30.0444H50.0665V20.6949C50.0665 19.9072 49.4279 19.2687 48.6403 19.2687C47.8527 19.2687 47.2141 19.9072 47.2141 20.6949V30.0444H44.6247V18.4447ZM41.5727 82.1476V32.8967H71.4275V82.1476H41.5727Z" fill="#FFBA08"/>
</svg>
