<svg width="158" height="145" viewBox="0 0 158 145" fill="none" xmlns="http://www.w3.org/2000/svg">
<g clip-path="url(#clip0_14_468)">
<path d="M107.192 0C98.425 0 91.1048 6.39275 89.6518 14.7608L68.8602 14.7605L56.3837 2.41004L51.639 6.13574L60.3516 14.7608H47.9574C46.7359 14.7608 45.6372 15.5029 45.181 16.636C44.7248 17.769 45.0033 19.0655 45.8836 19.9118L74.5687 47.4752V79.0142H64.5364C62.8836 79.0142 61.5434 80.3545 61.5434 82.0073C61.5434 83.66 62.8836 85.0003 64.5364 85.0003H90.5868C92.2392 85.0003 93.5795 83.66 93.5795 82.0073C93.5795 80.3545 92.2392 79.0142 90.5868 79.0142H80.5542V47.4755L96.5625 32.0931C99.6145 34.3789 103.296 35.6164 107.192 35.6164C117.011 35.6164 125 27.6279 125 17.8082C125 7.98857 117.011 0 107.192 0ZM116.896 24.549L112.25 19.9032H118.824C118.519 21.6055 117.849 23.1818 116.896 24.549ZM109.287 12.75V6.17552C110.989 6.48118 112.566 7.15145 113.933 8.10391L109.287 12.75ZM105.097 12.75L100.454 8.10677C101.82 7.15345 103.396 6.48232 105.097 6.1761V12.75ZM109.287 22.8661L113.933 27.512C112.566 28.4644 110.989 29.1347 109.287 29.4403V22.8661ZM112.25 15.713L116.896 11.0672C117.848 12.4343 118.519 14.0107 118.824 15.713H112.25ZM97.4906 11.07L101.181 14.7608H95.7715C96.1298 13.4226 96.7182 12.1779 97.4906 11.07ZM99.7315 20.7466L77.562 42.0495L55.3916 20.7463L99.7315 20.7466ZM105.097 23.8927V29.4432C103.625 29.1819 102.228 28.6493 100.966 27.8623L105.097 23.8927Z" fill="#FFBA08"/>
</g>
<defs>
<clipPath id="clip0_14_468">
<rect width="85" height="85" fill="white" transform="translate(40)"/>
</clipPath>
</defs>
</svg>
